<svg xmlns="http://www.w3.org/2000/svg" width="1024" height="1024" viewBox="0 0 1024 1024">
  <rect x="147.0" y="420.2" width="30" height="183.6" rx="15.0" fill="#FFFFFF"/>
  <rect x="197.0" y="344.6" width="30" height="334.8" rx="15.0" fill="#FFFFFF"/>
  <rect x="247.0" y="387.8" width="30" height="248.4" rx="15.0" fill="#FFFFFF"/>
  <rect x="297.0" y="274.4" width="30" height="475.2" rx="15.0" fill="#FFFFFF"/>
  <rect x="347.0" y="355.4" width="30" height="313.2" rx="15.0" fill="#FFFFFF"/>
  <rect x="397.0" y="242.0" width="30" height="540.0" rx="15.0" fill="#FFFFFF"/>
  <rect x="447.0" y="312.2" width="30" height="399.6" rx="15.0" fill="#FFFFFF"/>
  <rect x="497.0" y="398.6" width="30" height="226.8" rx="15.0" fill="#FFFFFF"/>
  <rect x="547.0" y="333.8" width="30" height="356.4" rx="15.0" fill="#FFFFFF"/>
  <rect x="597.0" y="258.2" width="30" height="507.6" rx="15.0" fill="#FFFFFF"/>
  <rect x="647.0" y="323.0" width="30" height="378.0" rx="15.0" fill="#FFFFFF"/>
  <rect x="697.0" y="371.6" width="30" height="280.8" rx="15.0" fill="#FFFFFF"/>
  <rect x="747.0" y="296.0" width="30" height="432.0" rx="15.0" fill="#FFFFFF"/>
  <rect x="797.0" y="393.2" width="30" height="237.6" rx="15.0" fill="#FFFFFF"/>
  <rect x="847.0" y="431.0" width="30" height="162.0" rx="15.0" fill="#FFFFFF"/>
</svg>
